<?xml version="1.0" encoding="UTF-8" ?>
<!DOCTYPE svg PUBLIC "-//W3C//DTD SVG 1.1//EN" "http://www.w3.org/Graphics/SVG/1.1/DTD/svg11.dtd">
<svg width="2084pt" height="743pt" viewBox="0 0 2084 743" version="1.1" xmlns="http://www.w3.org/2000/svg">
<g id="#848484ff">
<path fill="#848484" opacity="1.00" d=" M 85.12 119.15 C 89.56 116.30 95.01 117.30 100.00 117.05 C 722.67 117.04 1345.33 117.05 1968.00 117.04 C 1975.49 117.28 1983.09 116.55 1990.52 117.43 C 1993.91 119.15 1997.58 120.20 2001.31 120.98 C 2008.21 122.42 2013.85 126.88 2019.91 130.21 C 2026.48 135.38 2031.77 142.06 2035.66 149.45 C 2038.17 153.60 2039.12 158.42 2040.95 162.86 C 2042.23 165.71 2041.72 168.95 2041.92 172.00 C 2041.98 204.30 2041.95 236.61 2041.94 268.92 C 1960.30 268.61 1878.65 268.91 1797.00 268.77 C 1792.53 268.67 1788.07 268.79 1783.62 269.02 C 1784.54 275.94 1788.43 281.87 1790.93 288.27 C 1830.87 379.59 1870.99 470.84 1910.93 562.17 C 1912.69 565.96 1914.56 569.72 1915.42 573.85 C 1904.96 574.52 1894.47 573.99 1884.00 574.15 C 1854.71 574.02 1825.40 574.43 1796.11 573.96 C 1790.97 563.58 1786.62 552.83 1781.64 542.37 C 1741.73 542.29 1701.82 542.46 1661.91 542.29 C 1660.25 542.50 1657.72 542.04 1657.17 544.12 C 1653.68 552.24 1649.88 560.22 1646.40 568.35 C 1645.57 570.12 1644.76 571.93 1643.52 573.46 C 1642.13 574.15 1640.53 574.08 1639.06 574.20 C 1606.38 574.10 1573.69 574.18 1541.00 574.15 C 1535.43 574.03 1529.74 574.88 1524.34 573.14 C 1566.00 477.62 1607.83 382.16 1649.56 286.67 C 1651.92 280.85 1655.17 275.34 1656.37 269.11 C 1645.93 268.38 1635.45 268.98 1625.00 268.79 C 1594.66 268.80 1564.33 268.78 1533.99 268.80 C 1526.42 268.86 1518.85 268.56 1511.29 268.99 C 1511.37 363.66 1511.31 458.33 1511.32 553.00 C 1511.14 559.29 1511.76 565.61 1511.11 571.88 C 1511.09 574.52 1507.82 573.95 1506.05 574.20 C 1475.37 574.14 1444.68 574.11 1414.00 574.20 C 1410.54 574.05 1406.84 574.73 1403.58 573.39 C 1402.05 569.50 1402.95 565.09 1402.76 561.00 C 1402.83 463.67 1402.76 366.35 1402.80 269.02 C 1393.31 268.63 1383.79 268.60 1374.31 269.06 C 1374.37 369.38 1374.33 469.70 1374.33 570.02 C 1374.82 572.77 1372.69 574.58 1370.04 574.16 C 1336.68 574.16 1303.32 574.15 1269.96 574.16 C 1267.90 574.43 1265.61 573.39 1265.96 570.99 C 1265.67 550.76 1266.16 530.51 1265.78 510.28 C 1210.18 510.46 1154.59 510.31 1099.00 510.36 C 1091.17 510.43 1083.34 510.14 1075.52 510.53 C 1075.16 530.02 1075.45 549.54 1075.42 569.04 C 1075.23 570.50 1075.49 572.20 1074.56 573.47 C 1073.14 574.12 1071.55 574.09 1070.05 574.20 C 1037.68 574.14 1005.31 574.11 972.95 574.21 C 970.94 574.04 968.63 574.33 966.96 572.99 C 965.73 568.43 966.47 563.65 966.36 559.00 C 966.37 467.33 966.35 375.67 966.36 284.00 C 966.49 279.00 966.40 274.00 966.12 269.01 C 949.76 268.49 933.37 268.95 917.00 268.79 C 893.00 268.79 869.00 268.79 845.00 268.80 C 837.59 268.87 830.17 268.47 822.78 269.15 C 823.57 271.64 824.24 274.18 825.25 276.59 C 854.47 343.72 884.06 410.69 913.34 477.79 C 925.06 504.07 936.29 530.56 948.15 556.78 C 950.29 562.50 953.72 567.70 955.06 573.72 C 943.40 574.71 931.68 573.89 920.00 574.15 C 891.99 574.09 863.97 574.28 835.96 574.06 C 830.16 564.03 826.16 553.08 821.34 542.57 C 788.24 542.07 755.11 542.51 722.00 542.36 C 713.36 542.56 704.69 541.84 696.09 542.83 C 696.83 541.75 697.49 540.25 699.09 540.54 C 736.05 540.45 773.03 540.56 810.00 540.49 C 813.71 540.56 817.50 540.10 821.17 540.90 C 823.54 543.76 824.62 547.41 826.22 550.72 C 829.55 557.92 832.67 565.21 836.03 572.41 C 871.34 572.81 906.67 572.42 942.00 572.60 C 945.60 572.62 949.21 572.54 952.83 572.38 C 951.10 565.06 947.26 558.53 944.44 551.62 C 905.20 462.19 865.97 372.75 826.86 283.26 C 824.89 279.09 823.76 274.44 820.89 270.76 C 819.61 270.53 818.33 270.41 817.05 270.41 C 778.68 270.46 740.31 270.47 701.94 270.40 C 699.96 270.44 697.37 270.24 696.63 272.59 C 655.64 366.29 614.59 459.98 573.51 553.64 C 571.07 559.90 567.48 565.73 566.14 572.39 C 604.82 572.80 643.51 572.48 682.20 572.55 C 687.10 564.81 689.38 555.77 694.31 548.05 C 693.53 550.85 692.74 553.67 691.45 556.29 C 688.48 562.14 686.31 568.36 683.03 574.06 C 653.69 574.29 624.34 574.08 595.00 574.15 C 584.82 574.03 574.63 574.42 564.45 573.95 C 565.04 567.78 568.63 562.58 570.75 556.90 C 610.55 466.31 650.18 375.64 689.92 285.02 C 692.17 279.84 695.31 274.81 695.41 268.98 C 667.28 268.53 639.13 268.93 611.00 268.79 C 601.32 269.04 591.53 268.08 581.98 270.04 C 574.88 271.40 567.52 272.13 560.38 270.59 C 545.39 267.10 529.92 269.19 514.80 270.58 C 524.40 273.73 533.87 277.72 541.65 284.31 C 556.44 296.48 566.43 314.74 567.39 333.98 C 568.32 348.41 563.40 362.67 555.76 374.75 C 554.25 377.19 552.10 379.11 550.00 381.03 C 556.10 372.44 561.69 363.19 564.01 352.80 C 566.25 342.74 566.34 332.15 564.16 322.07 C 559.62 302.37 545.57 285.16 527.24 276.67 C 516.54 271.80 504.69 269.96 493.00 270.27 C 480.70 270.10 468.37 270.74 456.10 269.91 C 458.47 262.19 460.48 254.37 462.80 246.64 C 473.61 246.39 484.43 246.42 495.24 246.63 C 497.91 253.67 498.60 261.45 502.15 268.13 C 509.93 268.92 517.81 268.30 525.63 268.25 C 524.83 262.08 522.39 256.34 520.83 250.36 C 514.83 229.44 508.64 208.57 502.61 187.66 C 500.99 182.12 499.18 176.64 498.01 170.99 C 497.23 167.96 496.82 164.69 495.06 162.04 C 493.71 160.95 491.68 161.58 490.06 161.37 C 483.19 161.64 476.30 161.07 469.45 161.60 C 467.53 163.18 467.05 165.82 466.23 168.05 C 458.18 195.52 449.83 222.90 441.58 250.31 C 439.51 256.70 437.44 263.16 436.85 269.89 C 429.59 270.65 422.29 270.14 415.01 270.33 C 411.21 270.43 407.40 270.29 403.65 269.67 C 408.14 266.52 413.85 265.63 418.05 262.01 C 424.10 257.03 427.84 249.58 429.24 241.96 C 430.16 233.58 430.12 224.26 424.86 217.20 C 418.51 208.20 407.63 203.92 397.06 202.47 C 390.13 201.16 381.64 200.19 377.80 193.39 C 376.91 189.92 376.86 185.44 379.96 183.00 C 386.15 177.82 395.64 178.63 401.99 183.11 C 405.07 185.21 406.37 188.93 409.00 191.47 C 415.22 189.79 421.30 187.57 427.24 185.06 C 425.21 179.75 422.89 174.30 418.51 170.49 C 410.39 162.88 398.88 159.93 387.97 160.50 C 376.16 160.89 364.32 167.24 358.64 177.79 C 356.38 182.83 354.95 188.36 354.78 193.89 C 355.58 201.20 356.57 209.39 362.38 214.61 C 371.13 223.44 384.12 224.52 395.44 227.91 C 400.37 229.33 406.25 231.95 407.22 237.61 C 408.47 243.46 402.93 248.07 397.95 249.77 C 390.91 251.60 382.68 250.83 376.94 246.03 C 373.65 243.34 372.22 239.20 369.76 235.87 C 362.92 236.23 356.33 239.10 349.71 240.91 C 351.92 250.01 356.92 258.96 365.19 263.81 C 367.71 265.23 370.07 266.96 371.90 269.24 C 363.59 269.95 355.22 269.67 346.90 269.40 C 346.07 263.83 344.22 258.51 342.62 253.14 C 335.03 226.47 327.23 199.86 319.55 173.22 C 318.24 169.10 317.74 164.51 315.13 160.95 C 307.17 160.25 299.12 160.79 291.13 160.66 C 288.62 160.32 288.11 163.38 287.43 165.14 C 278.58 195.52 269.32 225.78 260.46 256.16 C 259.24 260.66 257.65 265.05 256.19 269.48 C 245.82 269.56 235.41 270.02 225.06 269.23 C 228.73 265.28 234.21 263.83 237.98 259.98 C 244.87 253.26 248.68 243.92 250.29 234.56 C 250.17 233.64 250.91 231.71 249.54 231.57 C 242.32 229.87 234.82 229.59 227.43 229.43 C 226.27 234.13 225.76 239.17 223.30 243.42 C 219.17 248.79 211.68 252.11 205.02 249.84 C 200.37 248.39 196.86 244.59 194.87 240.26 C 189.85 229.84 189.95 217.91 190.88 206.64 C 191.62 198.26 193.71 189.15 200.41 183.45 C 203.88 180.23 208.99 179.88 213.42 180.82 C 217.44 181.73 220.47 184.90 222.65 188.22 C 225.33 192.43 225.45 197.58 225.76 202.40 C 233.71 203.03 241.62 201.95 249.52 201.23 C 249.80 193.24 247.12 185.51 243.75 178.39 C 241.11 172.55 235.60 168.81 230.27 165.64 C 218.14 159.00 202.66 158.52 190.52 165.41 C 175.73 174.01 165.95 190.84 166.39 208.01 C 166.51 214.34 166.15 220.70 166.79 227.00 C 168.53 239.10 172.74 251.55 181.97 260.03 C 186.08 264.18 191.52 266.48 196.58 269.22 C 194.09 269.78 191.59 270.47 189.02 270.37 C 181.48 270.27 173.94 270.23 166.39 270.32 C 166.31 370.96 166.49 471.60 166.31 572.23 C 173.19 572.90 180.10 572.47 187.00 572.57 C 288.67 572.56 390.34 572.59 492.01 572.55 C 500.65 571.81 509.53 571.77 517.82 568.92 C 535.62 563.13 551.48 551.53 562.09 536.08 C 569.12 525.34 574.64 513.24 575.88 500.34 C 577.90 487.65 576.15 474.69 572.62 462.42 C 570.41 455.14 566.27 448.69 563.15 441.80 C 568.54 447.77 571.20 455.50 574.21 462.81 C 577.77 471.74 578.43 481.46 578.22 490.97 C 578.41 506.23 572.79 520.96 564.94 533.84 C 549.21 559.04 519.77 575.17 490.00 574.18 C 387.00 574.12 284.00 574.17 181.00 574.15 C 176.10 574.06 171.14 574.63 166.29 573.73 C 164.45 573.51 164.28 571.47 164.30 570.02 C 164.40 471.67 164.30 373.31 164.35 274.96 C 164.28 272.97 164.19 270.98 164.11 269.00 C 158.41 268.70 152.70 268.71 146.99 268.80 C 112.04 268.75 77.09 268.86 42.14 268.75 C 41.54 239.85 42.12 210.92 41.85 182.00 C 41.53 173.11 43.37 164.29 46.01 155.85 C 50.35 143.28 59.53 132.72 70.89 125.94 C 75.42 123.25 80.44 121.55 85.12 119.15 M 553.84 163.56 C 547.74 165.14 543.44 170.04 539.72 174.80 C 534.71 182.53 533.29 192.37 535.21 201.32 C 536.23 208.35 540.44 214.88 546.57 218.53 C 553.15 223.18 561.31 224.09 568.84 226.33 C 573.90 227.85 579.59 228.64 583.58 232.41 C 586.88 235.37 587.85 241.23 584.54 244.54 C 581.32 248.57 576.20 250.97 571.02 250.60 C 563.41 251.09 555.48 247.16 552.09 240.16 C 551.07 238.63 550.70 236.42 549.00 235.52 C 542.36 237.09 535.73 238.76 529.24 240.84 C 531.58 253.29 541.10 264.44 553.52 267.67 C 563.03 270.21 573.22 270.17 582.84 268.20 C 592.68 266.41 601.59 259.87 606.16 250.97 C 611.86 238.30 610.43 221.86 600.01 212.00 C 595.05 208.02 589.16 205.27 583.01 203.70 C 575.33 201.75 566.71 201.71 560.02 196.99 C 555.26 193.71 554.88 185.25 560.15 182.30 C 567.07 177.68 576.69 178.98 582.99 184.07 C 585.23 186.18 586.51 189.10 587.86 191.82 C 594.16 189.76 600.58 187.97 606.55 185.07 C 603.37 175.14 595.80 166.32 585.68 163.15 C 575.45 159.53 563.92 159.38 553.84 163.56 M 1075.89 268.98 C 1075.62 272.98 1075.52 276.99 1075.66 281.00 C 1075.66 313.33 1075.66 345.66 1075.66 378.00 C 1075.81 402.05 1075.36 426.12 1075.88 450.16 C 1086.91 450.61 1097.96 450.22 1109.00 450.35 C 1161.28 450.23 1213.57 450.59 1265.85 450.17 C 1265.94 389.77 1265.92 329.36 1265.86 268.96 C 1229.91 268.57 1193.95 268.90 1158.00 268.79 C 1130.63 268.93 1103.25 268.53 1075.89 268.98 M 968.72 270.65 C 968.29 302.09 968.66 333.55 968.54 365.00 C 968.63 434.13 968.35 503.27 968.67 572.39 C 977.77 572.79 986.89 572.47 996.00 572.57 C 1021.81 572.47 1047.62 572.77 1073.42 572.42 C 1073.98 551.26 1073.01 530.01 1073.89 508.89 C 1081.53 508.05 1089.30 508.82 1097.00 508.56 C 1153.78 508.63 1210.57 508.44 1267.35 508.66 C 1267.73 529.91 1267.21 551.17 1267.60 572.42 C 1302.55 572.70 1337.51 572.61 1372.47 572.47 C 1372.78 524.32 1372.51 476.16 1372.60 428.00 C 1372.49 375.53 1372.83 323.04 1372.43 270.57 C 1360.95 270.27 1349.48 270.53 1338.00 270.44 C 1314.55 270.55 1291.09 270.22 1267.64 270.61 C 1267.17 331.19 1267.75 391.79 1267.35 452.37 C 1203.88 452.64 1140.41 452.39 1076.95 452.50 C 1075.62 452.29 1073.18 452.88 1073.64 450.76 C 1073.33 390.72 1073.85 330.65 1073.38 270.61 C 1056.59 270.21 1039.79 270.56 1023.00 270.44 C 1004.91 270.58 986.80 270.16 968.72 270.65 M 1404.65 270.59 C 1404.28 314.39 1404.59 358.20 1404.49 402.00 C 1404.57 458.81 1404.32 515.63 1404.61 572.44 C 1439.56 572.67 1474.52 572.64 1509.47 572.45 C 1509.80 523.31 1509.52 474.15 1509.61 425.00 C 1509.49 373.53 1509.85 322.05 1509.43 270.58 C 1497.96 270.26 1486.47 270.53 1475.00 270.44 C 1451.55 270.55 1428.09 270.23 1404.65 270.59 M 1654.74 277.86 C 1615.16 368.27 1575.70 458.73 1536.07 549.13 C 1532.95 556.91 1528.89 564.32 1526.44 572.36 C 1536.28 572.83 1546.15 572.45 1556.00 572.57 C 1585.01 572.47 1614.02 572.76 1643.03 572.43 C 1647.54 563.00 1651.70 553.41 1655.99 543.88 C 1656.76 542.18 1657.77 540.08 1660.03 540.51 C 1700.01 540.50 1739.99 540.53 1779.97 540.50 C 1782.18 540.06 1783.03 542.48 1783.86 544.04 C 1788.09 553.57 1792.15 563.20 1796.81 572.54 C 1835.74 572.49 1874.69 572.79 1913.62 572.39 C 1911.62 565.80 1908.52 559.63 1905.79 553.34 C 1867.45 465.99 1829.19 378.59 1790.91 291.21 C 1788.06 285.02 1785.73 278.58 1782.52 272.56 C 1781.75 270.69 1779.85 270.30 1778.06 270.44 C 1747.70 270.45 1717.35 270.44 1687.00 270.44 C 1677.36 270.64 1667.69 270.04 1658.09 270.72 C 1656.59 272.90 1655.77 275.45 1654.74 277.86 Z" />
<path fill="#848484" opacity="1.00" d=" M 479.39 191.54 C 481.56 190.65 481.22 193.73 481.65 194.99 C 483.87 204.25 486.39 213.46 489.14 222.58 C 489.53 224.16 489.45 225.81 489.55 227.43 C 482.76 227.53 475.97 227.38 469.18 227.55 C 469.89 217.49 474.21 208.16 476.52 198.43 C 477.36 196.13 477.29 193.14 479.39 191.54 Z" />
<path fill="#848484" opacity="1.00" d=" M 296.37 202.54 C 297.32 199.22 297.91 195.71 299.98 192.86 C 300.92 194.49 301.83 196.17 302.22 198.03 C 304.19 206.21 306.75 214.22 308.98 222.32 C 309.50 223.90 309.33 225.57 309.47 227.20 C 302.92 227.30 296.35 227.64 289.82 227.01 C 291.48 218.73 294.23 210.71 296.37 202.54 Z" />
<path fill="#848484" opacity="1.00" d=" M 283.92 247.60 C 293.28 247.07 302.65 247.50 312.02 247.34 C 313.43 247.49 315.85 246.98 316.13 249.00 C 317.91 255.83 320.51 262.45 321.67 269.43 C 307.21 269.78 292.74 269.63 278.28 269.51 C 278.35 261.82 282.34 254.98 283.92 247.60 Z" />
</g>
<g id="#5b5b5bff">
<path fill="#5b5b5b" opacity="1.00" d=" M 1990.52 117.43 C 1996.27 116.45 2001.49 119.57 2006.64 121.59 C 2011.36 123.89 2016.48 126.05 2019.91 130.21 C 2013.85 126.88 2008.21 122.42 2001.31 120.98 C 1997.58 120.20 1993.91 119.15 1990.52 117.43 Z" />
<path fill="#5b5b5b" opacity="1.00" d=" M 71.31 124.41 C 75.68 122.16 80.11 119.55 85.12 119.15 C 80.44 121.55 75.42 123.25 70.89 125.94 C 59.53 132.72 50.35 143.28 46.01 155.85 C 43.37 164.29 41.53 173.11 41.85 182.00 C 42.12 210.92 41.54 239.85 42.14 268.75 C 77.09 268.86 112.04 268.75 146.99 268.80 C 152.70 268.71 158.41 268.70 164.11 269.00 C 164.19 270.98 164.28 272.97 164.35 274.96 C 164.30 373.31 164.40 471.67 164.30 570.02 C 164.28 571.47 164.45 573.51 166.29 573.73 C 171.14 574.63 176.10 574.06 181.00 574.15 C 284.00 574.17 387.00 574.12 490.00 574.18 C 519.77 575.17 549.21 559.04 564.94 533.84 C 572.79 520.96 578.41 506.23 578.22 490.97 C 578.43 481.46 577.77 471.74 574.21 462.81 C 571.20 455.50 568.54 447.77 563.15 441.80 C 557.55 434.51 551.42 427.54 544.19 421.83 C 538.46 417.23 531.82 413.95 525.16 410.94 C 519.83 408.49 513.89 407.69 508.67 404.97 C 514.43 402.24 520.99 401.77 526.56 398.50 C 535.68 394.63 543.33 388.23 550.00 381.03 C 552.10 379.11 554.25 377.19 555.76 374.75 C 563.40 362.67 568.32 348.41 567.39 333.98 C 566.43 314.74 556.44 296.48 541.65 284.31 C 533.87 277.72 524.40 273.73 514.80 270.58 C 529.92 269.19 545.39 267.10 560.38 270.59 C 567.52 272.13 574.88 271.40 581.98 270.04 C 591.53 268.08 601.32 269.04 611.00 268.79 C 639.13 268.93 667.28 268.53 695.41 268.98 C 695.31 274.81 692.17 279.84 689.92 285.02 C 650.18 375.64 610.55 466.31 570.75 556.90 C 568.63 562.58 565.04 567.78 564.45 573.95 C 574.63 574.42 584.82 574.03 595.00 574.15 C 624.34 574.08 653.69 574.29 683.03 574.06 C 686.31 568.36 688.48 562.14 691.45 556.29 C 692.74 553.67 693.53 550.85 694.31 548.05 C 694.90 546.31 695.48 544.56 696.09 542.83 C 704.69 541.84 713.36 542.56 722.00 542.36 C 755.11 542.51 788.24 542.07 821.34 542.57 C 826.16 553.08 830.16 564.03 835.96 574.06 C 863.97 574.28 891.99 574.09 920.00 574.15 C 931.68 573.89 943.40 574.71 955.06 573.72 C 953.72 567.70 950.29 562.50 948.15 556.78 C 936.29 530.56 925.06 504.07 913.34 477.79 C 884.06 410.69 854.47 343.72 825.25 276.59 C 824.24 274.18 823.57 271.64 822.78 269.15 C 830.17 268.47 837.59 268.87 845.00 268.80 C 869.00 268.79 893.00 268.79 917.00 268.79 C 933.37 268.95 949.76 268.49 966.12 269.01 C 966.40 274.00 966.49 279.00 966.36 284.00 C 966.35 375.67 966.37 467.33 966.36 559.00 C 966.47 563.65 965.73 568.43 966.96 572.99 C 968.63 574.33 970.94 574.04 972.95 574.21 C 1005.31 574.11 1037.68 574.14 1070.05 574.20 C 1071.55 574.09 1073.14 574.12 1074.56 573.47 C 1075.49 572.20 1075.23 570.50 1075.42 569.04 C 1075.45 549.54 1075.16 530.02 1075.52 510.53 C 1083.34 510.14 1091.17 510.43 1099.00 510.36 C 1154.59 510.31 1210.18 510.46 1265.78 510.28 C 1266.16 530.51 1265.67 550.76 1265.96 570.99 C 1265.61 573.39 1267.90 574.43 1269.96 574.16 C 1303.32 574.15 1336.68 574.16 1370.04 574.16 C 1372.69 574.58 1374.82 572.77 1374.33 570.02 C 1374.33 469.70 1374.37 369.38 1374.31 269.06 C 1383.79 268.60 1393.31 268.63 1402.80 269.02 C 1402.76 366.35 1402.83 463.67 1402.76 561.00 C 1402.95 565.09 1402.05 569.50 1403.58 573.39 C 1406.84 574.73 1410.54 574.05 1414.00 574.20 C 1444.68 574.11 1475.37 574.14 1506.05 574.20 C 1507.82 573.95 1511.09 574.52 1511.11 571.88 C 1511.76 565.61 1511.14 559.29 1511.32 553.00 C 1511.31 458.33 1511.37 363.66 1511.29 268.99 C 1518.85 268.56 1526.42 268.86 1533.99 268.80 C 1564.33 268.78 1594.66 268.80 1625.00 268.79 C 1635.45 268.98 1645.93 268.38 1656.37 269.11 C 1655.17 275.34 1651.92 280.85 1649.56 286.67 C 1607.83 382.16 1566.00 477.62 1524.34 573.14 C 1529.74 574.88 1535.43 574.03 1541.00 574.15 C 1573.69 574.18 1606.38 574.10 1639.06 574.20 C 1640.53 574.08 1642.13 574.15 1643.52 573.46 C 1644.76 571.93 1645.57 570.12 1646.40 568.35 C 1649.88 560.22 1653.68 552.24 1657.17 544.12 C 1657.72 542.04 1660.25 542.50 1661.91 542.29 C 1701.82 542.46 1741.73 542.29 1781.64 542.37 C 1786.62 552.83 1790.97 563.58 1796.11 573.96 C 1825.40 574.43 1854.71 574.02 1884.00 574.15 C 1894.47 573.99 1904.96 574.52 1915.42 573.85 C 1914.56 569.72 1912.69 565.96 1910.93 562.17 C 1870.99 470.84 1830.87 379.59 1790.93 288.27 C 1788.43 281.87 1784.54 275.94 1783.62 269.02 C 1788.07 268.79 1792.53 268.67 1797.00 268.77 C 1878.65 268.91 1960.30 268.61 2041.94 268.92 C 2041.96 364.94 2041.94 460.97 2041.95 557.00 C 2041.86 563.63 2042.19 570.31 2041.36 576.90 C 2038.52 585.62 2035.30 594.42 2029.55 601.69 C 2018.86 615.73 2001.60 624.06 1984.04 624.51 C 1361.70 624.49 739.35 624.50 117.00 624.50 C 105.87 624.36 94.50 625.37 83.69 622.07 C 74.42 619.14 65.58 614.25 58.97 607.02 C 50.07 598.84 45.13 587.38 41.73 576.02 C 41.28 553.36 41.65 530.68 41.53 508.00 C 41.54 395.67 41.52 283.33 41.47 170.99 C 41.54 168.29 41.27 165.49 42.22 162.90 C 45.01 154.47 48.34 145.96 54.09 139.07 C 59.15 133.46 64.57 127.98 71.31 124.41 Z" />
<path fill="#5b5b5b" opacity="1.00" d=" M 1075.89 268.98 C 1103.25 268.53 1130.63 268.93 1158.00 268.79 C 1193.95 268.90 1229.91 268.57 1265.86 268.96 C 1265.92 329.36 1265.94 389.77 1265.85 450.17 C 1213.57 450.59 1161.28 450.23 1109.00 450.35 C 1097.96 450.22 1086.91 450.61 1075.88 450.16 C 1075.36 426.12 1075.81 402.05 1075.66 378.00 C 1075.66 345.66 1075.66 313.33 1075.66 281.00 C 1075.52 276.99 1075.62 272.98 1075.89 268.98 Z" />
<path fill="#5b5b5b" opacity="1.00" d=" M 274.47 335.95 C 273.97 333.68 276.29 333.30 277.97 333.47 C 331.98 333.53 385.98 333.46 439.99 333.51 C 447.45 333.14 453.76 338.24 458.04 343.85 C 460.87 347.62 460.77 352.50 460.73 356.99 C 461.63 368.11 450.95 378.30 439.99 377.70 C 384.84 377.60 329.67 377.92 274.52 377.53 C 274.39 363.67 274.46 349.81 274.47 335.95 Z" />
<path fill="#5b5b5b" opacity="1.00" d=" M 1717.32 408.30 C 1718.29 406.98 1718.31 403.75 1720.59 404.40 C 1730.79 428.52 1741.35 452.52 1751.39 476.72 C 1752.26 478.07 1752.28 480.71 1750.07 480.48 C 1729.70 480.46 1709.31 480.61 1688.95 480.41 C 1688.60 480.09 1687.89 479.45 1687.54 479.13 C 1688.58 474.29 1692.12 470.36 1692.59 465.32 C 1692.82 465.76 1693.07 466.20 1693.34 466.64 C 1695.67 457.30 1700.75 448.93 1703.94 439.87 C 1708.27 429.30 1713.34 419.04 1717.32 408.30 Z" />
<path fill="#5b5b5b" opacity="1.00" d=" M 757.21 407.11 C 757.74 405.83 758.94 405.06 759.92 404.16 C 764.56 415.12 769.55 425.96 773.80 437.09 L 773.58 437.77 C 773.84 437.39 774.37 436.63 774.63 436.25 C 775.89 444.13 780.49 450.98 783.35 458.33 C 785.55 465.90 790.73 472.43 791.64 480.40 C 770.21 480.59 748.78 480.52 727.35 480.44 C 727.35 475.28 730.46 470.96 732.12 466.27 C 738.79 451.18 745.45 436.04 751.20 420.58 C 751.10 421.30 750.89 422.74 750.78 423.46 C 752.73 417.94 754.77 412.45 757.21 407.11 Z" />
<path fill="#5b5b5b" opacity="1.00" d=" M 274.52 442.49 C 328.67 442.11 382.83 442.46 436.99 442.32 C 453.50 441.53 469.05 456.36 468.68 472.98 C 469.79 489.58 454.87 505.84 437.98 504.76 C 383.49 504.63 328.99 504.98 274.51 504.58 C 274.42 483.88 274.41 463.19 274.52 442.49 Z" />
</g>
<g id="#ffffffff">
<path fill="#ffffff" opacity="1.00" d=" M 287.43 165.14 C 288.11 163.38 288.62 160.32 291.13 160.66 C 299.12 160.79 307.17 160.25 315.13 160.95 C 317.74 164.51 318.24 169.10 319.55 173.22 C 327.23 199.86 335.03 226.47 342.62 253.14 C 344.22 258.51 346.07 263.83 346.90 269.40 C 355.22 269.67 363.59 269.95 371.90 269.24 C 370.07 266.96 367.71 265.23 365.19 263.81 C 356.92 258.96 351.92 250.01 349.71 240.91 C 356.33 239.10 362.92 236.23 369.76 235.87 C 372.22 239.20 373.65 243.34 376.94 246.03 C 382.68 250.83 390.91 251.60 397.95 249.77 C 402.93 248.07 408.47 243.46 407.22 237.61 C 406.25 231.95 400.37 229.33 395.44 227.91 C 384.12 224.52 371.13 223.44 362.38 214.61 C 356.57 209.39 355.58 201.20 354.78 193.89 C 354.95 188.36 356.38 182.83 358.64 177.79 C 364.32 167.24 376.16 160.89 387.97 160.50 C 398.88 159.93 410.39 162.88 418.51 170.49 C 422.89 174.30 425.21 179.75 427.24 185.06 C 421.30 187.57 415.22 189.79 409.00 191.47 C 406.37 188.93 405.07 185.21 401.99 183.11 C 395.64 178.63 386.15 177.82 379.96 183.00 C 376.86 185.44 376.91 189.92 377.80 193.39 C 381.64 200.19 390.13 201.16 397.06 202.47 C 407.63 203.92 418.51 208.20 424.86 217.20 C 430.12 224.26 430.16 233.58 429.24 241.96 C 427.84 249.58 424.10 257.03 418.05 262.01 C 413.85 265.63 408.14 266.52 403.65 269.67 C 407.40 270.29 411.21 270.43 415.01 270.33 C 422.29 270.14 429.59 270.65 436.85 269.89 C 437.44 263.16 439.51 256.70 441.58 250.31 C 449.83 222.90 458.18 195.52 466.23 168.05 C 467.05 165.82 467.53 163.18 469.45 161.60 C 476.30 161.07 483.19 161.64 490.06 161.37 C 491.68 161.58 493.71 160.95 495.06 162.04 C 496.82 164.69 497.23 167.96 498.01 170.99 C 499.18 176.64 500.99 182.12 502.61 187.66 C 508.64 208.57 514.83 229.44 520.83 250.36 C 522.39 256.34 524.83 262.08 525.63 268.25 C 517.81 268.30 509.93 268.92 502.15 268.13 C 498.60 261.45 497.91 253.67 495.24 246.63 C 484.43 246.42 473.61 246.39 462.80 246.64 C 460.48 254.37 458.47 262.19 456.10 269.91 C 468.37 270.74 480.70 270.10 493.00 270.27 C 504.69 269.96 516.54 271.80 527.24 276.67 C 545.57 285.16 559.62 302.37 564.16 322.07 C 566.34 332.15 566.25 342.74 564.01 352.80 C 561.69 363.19 556.10 372.44 550.00 381.03 C 543.33 388.23 535.68 394.63 526.56 398.50 C 520.99 401.77 514.43 402.24 508.67 404.97 C 513.89 407.69 519.83 408.49 525.16 410.94 C 531.82 413.95 538.46 417.23 544.19 421.83 C 551.42 427.54 557.55 434.51 563.15 441.80 C 566.27 448.69 570.41 455.14 572.62 462.42 C 576.15 474.69 577.90 487.65 575.88 500.34 C 574.64 513.24 569.12 525.34 562.09 536.08 C 551.48 551.53 535.62 563.13 517.82 568.92 C 509.53 571.77 500.65 571.81 492.01 572.55 C 390.34 572.59 288.67 572.56 187.00 572.57 C 180.10 572.47 173.19 572.90 166.31 572.23 C 166.49 471.60 166.31 370.96 166.39 270.32 C 173.94 270.23 181.48 270.27 189.02 270.37 C 191.59 270.47 194.09 269.78 196.58 269.22 C 191.52 266.48 186.08 264.18 181.97 260.03 C 172.74 251.55 168.53 239.10 166.79 227.00 C 166.15 220.70 166.51 214.34 166.39 208.01 C 165.95 190.84 175.73 174.01 190.52 165.41 C 202.66 158.52 218.14 159.00 230.27 165.64 C 235.60 168.81 241.11 172.55 243.75 178.39 C 247.12 185.51 249.80 193.24 249.52 201.23 C 241.62 201.95 233.71 203.03 225.76 202.40 C 225.45 197.58 225.33 192.43 222.65 188.22 C 220.47 184.90 217.44 181.73 213.42 180.82 C 208.99 179.88 203.88 180.23 200.41 183.45 C 193.71 189.15 191.62 198.26 190.88 206.64 C 189.95 217.91 189.85 229.84 194.87 240.26 C 196.86 244.59 200.37 248.39 205.02 249.84 C 211.68 252.11 219.17 248.79 223.30 243.42 C 225.76 239.17 226.27 234.13 227.43 229.43 C 234.82 229.59 242.32 229.87 249.54 231.57 C 250.91 231.71 250.17 233.64 250.29 234.56 C 248.68 243.92 244.87 253.26 237.98 259.98 C 234.21 263.83 228.73 265.28 225.06 269.23 C 235.41 270.02 245.82 269.56 256.19 269.48 C 257.65 265.05 259.24 260.66 260.46 256.16 C 269.32 225.78 278.58 195.52 287.43 165.14 M 479.39 191.54 C 477.29 193.14 477.36 196.13 476.52 198.43 C 474.21 208.16 469.89 217.49 469.18 227.55 C 475.97 227.38 482.76 227.53 489.55 227.43 C 489.45 225.81 489.53 224.16 489.14 222.58 C 486.39 213.46 483.87 204.25 481.65 194.99 C 481.22 193.73 481.56 190.65 479.39 191.54 M 296.37 202.54 C 294.23 210.71 291.48 218.73 289.82 227.01 C 296.35 227.64 302.92 227.30 309.47 227.20 C 309.33 225.57 309.50 223.90 308.98 222.32 C 306.75 214.22 304.19 206.21 302.22 198.03 C 301.83 196.17 300.92 194.49 299.98 192.86 C 297.91 195.71 297.32 199.22 296.37 202.54 M 283.92 247.60 C 282.34 254.98 278.35 261.82 278.28 269.51 C 292.74 269.63 307.21 269.78 321.67 269.43 C 320.51 262.45 317.91 255.83 316.13 249.00 C 315.85 246.98 313.43 247.49 312.02 247.34 C 302.65 247.50 293.28 247.07 283.92 247.60 M 274.47 335.95 C 274.46 349.81 274.39 363.67 274.52 377.53 C 329.67 377.92 384.84 377.60 439.99 377.70 C 450.95 378.30 461.63 368.11 460.73 356.99 C 460.77 352.50 460.87 347.62 458.04 343.85 C 453.76 338.24 447.45 333.14 439.99 333.51 C 385.98 333.46 331.98 333.53 277.97 333.47 C 276.29 333.30 273.97 333.68 274.47 335.95 M 274.52 442.49 C 274.41 463.19 274.42 483.88 274.51 504.58 C 328.99 504.98 383.49 504.63 437.98 504.76 C 454.87 505.84 469.79 489.58 468.68 472.98 C 469.05 456.36 453.50 441.53 436.99 442.32 C 382.83 442.46 328.67 442.11 274.52 442.49 Z" />
<path fill="#ffffff" opacity="1.00" d=" M 553.84 163.56 C 563.92 159.38 575.45 159.53 585.68 163.15 C 595.80 166.32 603.37 175.14 606.55 185.07 C 600.58 187.97 594.16 189.76 587.86 191.82 C 586.51 189.10 585.23 186.18 582.99 184.07 C 576.69 178.98 567.07 177.68 560.15 182.30 C 554.88 185.25 555.26 193.71 560.02 196.99 C 566.71 201.71 575.33 201.75 583.01 203.70 C 589.16 205.27 595.05 208.02 600.01 212.00 C 610.43 221.86 611.86 238.30 606.16 250.97 C 601.59 259.87 592.68 266.41 582.84 268.20 C 573.22 270.17 563.03 270.21 553.52 267.67 C 541.10 264.44 531.58 253.29 529.24 240.84 C 535.73 238.76 542.36 237.09 549.00 235.52 C 550.70 236.42 551.07 238.63 552.09 240.16 C 555.48 247.16 563.41 251.09 571.02 250.60 C 576.20 250.97 581.32 248.57 584.54 244.54 C 587.85 241.23 586.88 235.37 583.58 232.41 C 579.59 228.64 573.90 227.85 568.84 226.33 C 561.31 224.09 553.15 223.18 546.57 218.53 C 540.44 214.88 536.23 208.35 535.21 201.32 C 533.29 192.37 534.71 182.53 539.72 174.80 C 543.44 170.04 547.74 165.14 553.84 163.56 Z" />
<path fill="#ffffff" opacity="1.00" d=" M 696.63 272.59 C 697.37 270.24 699.96 270.44 701.94 270.40 C 740.31 270.47 778.68 270.46 817.05 270.41 C 818.33 270.41 819.61 270.53 820.89 270.76 C 823.76 274.44 824.89 279.09 826.86 283.26 C 865.97 372.75 905.20 462.19 944.44 551.62 C 947.26 558.53 951.10 565.06 952.83 572.38 C 949.21 572.54 945.60 572.62 942.00 572.60 C 906.67 572.42 871.34 572.81 836.03 572.41 C 832.67 565.21 829.55 557.92 826.22 550.72 C 824.62 547.41 823.54 543.76 821.17 540.90 C 817.50 540.10 813.71 540.56 810.00 540.49 C 773.03 540.56 736.05 540.45 699.09 540.54 C 697.49 540.25 696.83 541.75 696.09 542.83 C 695.48 544.56 694.90 546.31 694.31 548.05 C 689.38 555.77 687.10 564.81 682.20 572.55 C 643.51 572.48 604.82 572.80 566.14 572.39 C 567.48 565.73 571.07 559.90 573.51 553.64 C 614.59 459.98 655.64 366.29 696.63 272.59 M 757.21 407.11 C 754.77 412.45 752.73 417.94 750.78 423.46 C 750.89 422.74 751.10 421.30 751.20 420.58 C 745.45 436.04 738.79 451.18 732.12 466.27 C 730.46 470.96 727.35 475.28 727.35 480.44 C 748.78 480.52 770.21 480.59 791.64 480.40 C 790.73 472.43 785.55 465.90 783.35 458.33 C 780.49 450.98 775.89 444.13 774.63 436.25 C 774.37 436.63 773.84 437.39 773.58 437.77 L 773.80 437.09 C 769.55 425.96 764.56 415.12 759.92 404.16 C 758.94 405.06 757.74 405.83 757.21 407.11 Z" />
<path fill="#ffffff" opacity="1.00" d=" M 968.72 270.65 C 986.80 270.16 1004.91 270.58 1023.00 270.44 C 1039.79 270.56 1056.59 270.21 1073.38 270.61 C 1073.85 330.65 1073.33 390.72 1073.64 450.76 C 1073.18 452.88 1075.62 452.29 1076.95 452.50 C 1140.41 452.39 1203.88 452.64 1267.35 452.37 C 1267.75 391.79 1267.17 331.19 1267.64 270.61 C 1291.09 270.22 1314.55 270.55 1338.00 270.44 C 1349.48 270.53 1360.95 270.27 1372.43 270.57 C 1372.83 323.04 1372.49 375.53 1372.60 428.00 C 1372.51 476.16 1372.78 524.32 1372.47 572.47 C 1337.51 572.61 1302.55 572.70 1267.60 572.42 C 1267.21 551.17 1267.73 529.91 1267.35 508.66 C 1210.57 508.44 1153.78 508.63 1097.00 508.56 C 1089.30 508.82 1081.53 508.05 1073.89 508.89 C 1073.01 530.01 1073.98 551.26 1073.42 572.42 C 1047.62 572.77 1021.81 572.47 996.00 572.57 C 986.89 572.47 977.77 572.79 968.67 572.39 C 968.35 503.27 968.63 434.13 968.54 365.00 C 968.66 333.55 968.29 302.09 968.72 270.65 Z" />
<path fill="#ffffff" opacity="1.00" d=" M 1404.65 270.59 C 1428.09 270.23 1451.55 270.55 1475.00 270.44 C 1486.47 270.53 1497.96 270.26 1509.43 270.58 C 1509.85 322.05 1509.49 373.53 1509.61 425.00 C 1509.52 474.15 1509.80 523.31 1509.47 572.45 C 1474.52 572.64 1439.56 572.67 1404.61 572.44 C 1404.32 515.63 1404.57 458.81 1404.49 402.00 C 1404.59 358.20 1404.28 314.39 1404.65 270.59 Z" />
<path fill="#ffffff" opacity="1.00" d=" M 1654.74 277.86 C 1655.77 275.45 1656.59 272.90 1658.09 270.72 C 1667.69 270.04 1677.36 270.64 1687.00 270.44 C 1717.35 270.44 1747.70 270.45 1778.06 270.44 C 1779.85 270.30 1781.75 270.69 1782.52 272.56 C 1785.73 278.58 1788.06 285.02 1790.91 291.21 C 1829.19 378.59 1867.45 465.99 1905.79 553.34 C 1908.52 559.63 1911.62 565.80 1913.62 572.39 C 1874.69 572.79 1835.74 572.49 1796.81 572.54 C 1792.15 563.20 1788.09 553.57 1783.86 544.04 C 1783.03 542.48 1782.18 540.06 1779.97 540.50 C 1739.99 540.53 1700.01 540.50 1660.03 540.51 C 1657.77 540.08 1656.76 542.18 1655.99 543.88 C 1651.70 553.41 1647.54 563.00 1643.03 572.43 C 1614.02 572.76 1585.01 572.47 1556.00 572.57 C 1546.15 572.45 1536.28 572.83 1526.44 572.36 C 1528.89 564.32 1532.95 556.91 1536.07 549.13 C 1575.70 458.73 1615.16 368.27 1654.74 277.86 M 1717.32 408.30 C 1713.34 419.04 1708.27 429.30 1703.94 439.87 C 1700.75 448.93 1695.67 457.30 1693.34 466.64 C 1693.07 466.20 1692.82 465.76 1692.59 465.32 C 1692.12 470.36 1688.58 474.29 1687.54 479.13 C 1687.89 479.45 1688.60 480.09 1688.95 480.41 C 1709.31 480.61 1729.70 480.46 1750.07 480.48 C 1752.28 480.71 1752.26 478.07 1751.39 476.72 C 1741.35 452.52 1730.79 428.52 1720.59 404.40 C 1718.31 403.75 1718.29 406.98 1717.32 408.30 Z" />
</g>
</svg>
